<?xml version="1.0" encoding="iso-8859-1"?>
<!-- Generator: Adobe Illustrator 19.0.0, SVG Export Plug-In . SVG Version: 6.00 Build 0)  -->
<svg version="1.1" id="Capa_1" xmlns="http://www.w3.org/2000/svg" xmlns:xlink="http://www.w3.org/1999/xlink" x="0px" y="0px"
	 viewBox="0 0 60 60" style="enable-background:new 0 0 60 60;" xml:space="preserve">
<g>
	<g>
		<path d="M59,38H31V25c0-3.9-3.1-7-7-7H14c-3.9,0-7,3.1-7,7v13H1c-0.6,0-1,0.4-1,1v4v16c0,0.6,0.4,1,1,1h58c0.6,0,1-0.4,1-1V43v-4
			C60,38.4,59.6,38,59,38z M9,25c0-2.8,2.2-5,5-5h4v7h2v-7h4c2.8,0,5,2.2,5,5v13h-3V26h-2v12H14V26h-2v12H9V25z M2,40h56v2H2V40z
			 M58,58H2V44h56V58z"/>
		<rect x="18" y="30" width="2" height="2"/>
		<rect x="18" y="34" width="2" height="2"/>
		<path d="M18,16h2c2.8,0,5-2.2,5-5V8c0-2.8-2.2-5-5-5h-2c-2.8,0-5,2.2-5,5v3C13,13.8,15.2,16,18,16z M20,14h-2c-1.7,0-3-1.3-3-3V9
			h8v2C23,12.7,21.7,14,20,14z M18,5h2c1.3,0,2.4,0.8,2.8,2h-7.7C15.6,5.8,16.7,5,18,5z"/>
		<path d="M35,30h22c0.6,0,1-0.4,1-1v-6V1c0-0.6-0.4-1-1-1H35c-0.6,0-1,0.4-1,1v22v6C34,29.6,34.4,30,35,30z M56,28H36v-4h20V28z
			 M36,2h20v20H36V2z"/>
		<polygon points="47,5 45,5 45,7 42,7 42,9 45,9 45,11 42,11 42,13 45,13 45,15 42,15 42,17 45,17 45,19 47,19 47,17 50,17 50,15 
			47,15 47,13 50,13 50,11 47,11 47,9 50,9 50,7 47,7 		"/>
		<rect x="38" y="18" width="2" height="2"/>
		<rect x="38" y="4" width="2" height="2"/>
		<rect x="52" y="4" width="2" height="2"/>
		<rect x="52" y="19" width="2" height="2"/>
		<rect x="35" y="33" width="2" height="2"/>
		<rect x="39" y="33" width="2" height="2"/>
		<rect x="43" y="33" width="2" height="2"/>
		<rect x="47" y="33" width="2" height="2"/>
		<rect x="51" y="33" width="2" height="2"/>
		<rect x="55" y="33" width="2" height="2"/>
		<rect x="4" y="46" width="2" height="2"/>
		<rect x="54" y="46" width="2" height="2"/>
	</g>
</g>
<g>
</g>
<g>
</g>
<g>
</g>
<g>
</g>
<g>
</g>
<g>
</g>
<g>
</g>
<g>
</g>
<g>
</g>
<g>
</g>
<g>
</g>
<g>
</g>
<g>
</g>
<g>
</g>
<g>
</g>
</svg>
