<?xml version="1.0" encoding="iso-8859-1"?>
<!-- Generator: Adobe Illustrator 17.1.0, SVG Export Plug-In . SVG Version: 6.00 Build 0)  -->
<!DOCTYPE svg PUBLIC "-//W3C//DTD SVG 1.1//EN" "http://www.w3.org/Graphics/SVG/1.1/DTD/svg11.dtd">
<svg version="1.1" id="Capa_1" xmlns="http://www.w3.org/2000/svg" xmlns:xlink="http://www.w3.org/1999/xlink" x="0px" y="0px"
	 viewBox="0 0 406.836 406.836" style="enable-background:new 0 0 406.836 406.836;" xml:space="preserve">
<path style="fill-rule:evenodd;clip-rule:evenodd;" d="M144.722,225.265h242.11v-15.122c0-5.522,4.478-10,10-10s10,4.478,10,10
	v25.122c0,5.522-4.478,10-10,10h-252.11c-5.522,0-10-4.478-10-10S139.199,225.265,144.722,225.265z M240.212,212.143
	c4.931,2.488,10.944,0.509,13.434-4.422c8.402-16.65,17.85-23.441,32.606-23.441h20.7c14.758,0,24.205,6.791,32.607,23.441
	c1.76,3.485,5.28,5.496,8.936,5.496c1.515,0,3.053-0.346,4.498-1.074c4.931-2.488,6.91-8.503,4.422-13.434
	c-7.46-14.78-20.807-34.43-50.463-34.43h-20.7c-29.655,0-43.002,19.649-50.462,34.43
	C233.302,203.64,235.282,209.655,240.212,212.143z M246.045,103.756c0-20.043,12.547-37.662,30.775-44.541
	c2.867-23.524,22.963-41.808,47.249-41.808c26.248,0,47.602,21.354,47.602,47.601c0,20.325-12.806,37.717-30.773,44.528
	c-2.861,23.53-22.962,41.818-47.253,41.818C267.398,151.355,246.045,130.002,246.045,103.756z M296.47,65.008
	c0,0.439,0.011,0.876,0.03,1.311c0.001,0.012,0.002,0.024,0.002,0.037c0.003,0.046,0.005,0.094,0.008,0.141
	c0.774,14.498,12.79,26.062,27.466,26.111c0.013-0.003,0.028,0,0.043,0c0.003,0,0.004,0,0.007,0c0.028,0,0.057,0,0.087,0
	c0.014,0,0.028,0,0.042,0c0.012,0,0.023-0.002,0.041,0c0.014,0,0.026-0.002,0.04,0c1.097-0.007,2.195-0.079,3.283-0.215
	c0.008,0,0.014-0.002,0.021-0.002c13.587-1.712,24.132-13.339,24.132-27.383c0-15.219-12.382-27.601-27.602-27.601
	C308.851,37.408,296.47,49.79,296.47,65.008z M266.045,103.756c0,15.218,12.381,27.599,27.6,27.599
	c12.193,0,22.564-7.945,26.207-18.931c-19.038-1.666-34.913-14.501-40.864-32.066C271.136,85.288,266.045,94.03,266.045,103.756z
	 M82.109,157.585c24.175,0,43.842,19.667,43.842,43.841s-19.667,43.841-43.842,43.841c-24.174,0-43.841-19.667-43.841-43.841
	S57.936,157.585,82.109,157.585z M82.109,177.585c-13.146,0-23.841,10.695-23.841,23.841s10.695,23.841,23.841,23.841
	c13.146,0,23.842-10.695,23.842-23.841S95.256,177.585,82.109,177.585z M406.836,379.428c0,5.522-4.478,10-10,10H10.002
	c-5.522,0-10-4.478-10-10s4.478-10,10-10h38.349V284.89H10c-5.522,0-10-4.478-10-10c0-0.067,0.001-0.135,0.002-0.201V93.235
	c0-32.173,26.174-58.348,58.347-58.348h34.124c36.635,0,67.017,27.276,71.901,62.589h39.041c5.522,0,10,4.478,10,10s-4.478,10-10,10
	h-96.706c-5.522,0-10-4.478-10-10s4.478-10,10-10h37.397c-4.683-24.233-26.055-42.589-51.634-42.589H58.349
	c-21.145,0-38.347,17.203-38.347,38.348V264.89h328.28c0.133-0.002,0.27-0.002,0.402,0h48.151c5.522,0,10,4.478,10,10
	s-4.478,10-10,10h-38.353v84.538h38.353C402.358,369.428,406.836,373.906,406.836,379.428z M338.483,284.89H68.351v84.538h270.133
	V284.89z M324.071,76.064c6.104,0,11.056-4.951,11.056-11.056c0-6.106-4.952-11.057-11.056-11.057
	c-6.107,0-11.058,4.95-11.058,11.057C313.013,71.114,317.964,76.064,324.071,76.064z"/>
<g>
</g>
<g>
</g>
<g>
</g>
<g>
</g>
<g>
</g>
<g>
</g>
<g>
</g>
<g>
</g>
<g>
</g>
<g>
</g>
<g>
</g>
<g>
</g>
<g>
</g>
<g>
</g>
<g>
</g>
</svg>
